PathFileType	4	(X/Y/Z)	Walk3.trc
DataRate	CameraRate	NumFrames	NumMarkers	Units	OrigDataRate	OrigDataStartFrame	OrigNumFrames
200.000000	200.000000	4	68	mm	200.000000	1022	1063
Frame#	Times		LFHD		LowerBodyModelVer		RFHD		RACR1		RCAR		LElbow		RWRU		RUA1		LACR1		LLFC		RASI		RFA1		LUA1		LTH3		LTB1		RTH2		LMT1		LMT5		RTH4		LTB4		LTH4		LTB3		LToe		RLFC		CLAV		STRN		LTH2		LLMAL		LASI		LTH1		PELOrigin		RTH3		LWRU		RElbow		RBack		LFA1		LPSI		RMT1		RMT5		LBHD		RPSI		LHJC		MidPelvis		OPelvis		RHJC		SACR		XPelvis		YPelvis		ZPelvis		RCAL		LCAR		C7		RToe		RLMAL		RBHD		RTB2		RTB3		RTH1		LWRR		RTB1		RTB4		RMMAL		LTB2		RElbowM		T10		RWRR		LMMAL		LCAL
			X1	Y1	Z1	X2	Y2	Z2	X3	Y3	Z3	X4	Y4	Z4	X5	Y5	Z5	X6	Y6	Z6	X7	Y7	Z7	X8	Y8	Z8	X9	Y9	Z9	X10	Y10	Z10	X11	Y11	Z11	X12	Y12	Z12	X13	Y13	Z13	X14	Y14	Z14	X15	Y15	Z15	X16	Y16	Z16	X17	Y17	Z17	X18	Y18	Z18	X19	Y19	Z19	X20	Y20	Z20	X21	Y21	Z21	X22	Y22	Z22	X23	Y23	Z23	X24	Y24	Z24	X25	Y25	Z25	X26	Y26	Z26	X27	Y27	Z27	X28	Y28	Z28	X29	Y29	Z29	X30	Y30	Z30	X31	Y31	Z31	X32	Y32	Z32	X33	Y33	Z33	X34	Y34	Z34	X35	Y35	Z35	X36	Y36	Z36	X37	Y37	Z37	X38	Y38	Z38	X39	Y39	Z39	X40	Y40	Z40	X41	Y41	Z41	X42	Y42	Z42	X43	Y43	Z43	X44	Y44	Z44	X45	Y45	Z45	X46	Y46	Z46	X47	Y47	Z47	X48	Y48	Z48	X49	Y49	Z49	X50	Y50	Z50	X51	Y51	Z51	X52	Y52	Z52	X53	Y53	Z53	X54	Y54	Z54	X55	Y55	Z55	X56	Y56	Z56	X57	Y57	Z57	X58	Y58	Z58	X59	Y59	Z59	X60	Y60	Z60	X61	Y61	Z61	X62	Y62	Z62	X63	Y63	Z63	X64	Y64	Z64	X65	Y65	Z65	X66	Y66	Z66	X67	Y67	Z67	X68	Y68	Z68

1022	5.11	895.16	1583.2	-75.87	9	2014	4	894.15	1578.7	22.201	760.28	1386.4	139.05	729.15	786.73	288.46	755.94	1057.9	-333.14	697.18	846.82	309.47	714.64	1248.8	232.34	786.43	1354.1	-220.61	752.51	488.94	-162.58	852	975.09	161.03	722.95	951.64	279.61	783.57	1206.1	-296.48	789.02	560.35	-174.94	763.96	335.44	-56.543	903.38	669.39	191.76	827.51	36.53	-42.491	810.6	25.541	-133.05	847.05	652.83	204.73	752.16	249.98	-62.83	805.99	641.69	-202.68	741.5	165.37	-63.877	871.53	30.898	-44.07	887.31	482.19	187.28	846.77	1346.5	-36.507	914.43	1232.6	-17.724	855.4	641.41	-169.07	693.44	69.91	-122.6	865.65	961.64	-196.06	827.15	719.21	-230.94	858.83	968.37	-17.515	870.64	568.97	194.62	818.26	824.61	-387.73	666.82	1084.1	266.84	626.89	1316.8	58.515	826.55	942.44	-355	627.85	980.19	-123.08	871.66	48.848	92.416	842.24	47.845	172.92	744.12	1566.6	-105.63	608.93	977.02	9.629	775.49	853.44	-138.13	738.61	973.49	-37.12	858.83	968.37	-17.515	766.21	862.59	104.69	618.39	978.61	-56.726	938.68	964.61	-14.321	862.69	1048.2	-20.375	855.77	971.38	62.37	688.97	93.261	92.646	862.34	783.27	-385.12	684.09	1416	-36.896	909.72	41.247	109.69	741.39	116.38	147.66	723.68	1571	28.522	851.19	300.68	170.57	835.7	213.57	109.1	832.81	735.79	216.93	867.22	828.93	-331.9	918.33	363.1	115.94	877.01	288.33	112.52	777.8	120.5	69.772	751.35	254.44	-124.44	635.05	1070.7	179.62	639.24	1083.6	-38.316	734.62	846.32	244.5	704.19	75.841	-38.159	637.07	31.029	-82.781
1023	5.115	899.63	1582.7	-75.774	9	2014	4	898.59	1578.2	22.303	764.5	1385.9	139.03	732.27	786.27	288.49	762.25	1057.5	-333.54	700.34	846.41	309.38	718.63	1248.3	232.21	791.17	1353.7	-220.54	753.82	488.86	-162.46	856.58	974.87	160.86	726.33	951.14	279.57	788.6	1205.9	-296.73	790.92	560.04	-174.8	764.65	335.31	-56.404	909.06	669.66	191.2	827.55	36.516	-42.505	810.6	25.537	-133.05	852.89	652.81	204.56	752.03	250.12	-62.473	808.83	641.19	-202.47	741.82	165.3	-63.789	871.66	30.866	-44.167	893.86	482.11	186.64	851.11	1345.9	-36.351	918.58	1231.9	-17.139	858.06	640.47	-168.57	693.51	69.984	-122.49	869.7	961.08	-196.11	830.88	718.51	-230.62	863.14	967.97	-17.624	876.85	569.02	194.15	828.15	825.09	-387.64	670.54	1083.7	266.72	631.15	1316.4	58.262	834.61	942.98	-354.99	631.92	979.78	-122.92	889.12	48.251	94.019	859.41	46.858	174.38	748.59	1566.1	-105.58	612.98	976.63	9.7351	779.65	852.98	-137.97	742.8	973.09	-37.108	863.14	967.97	-17.624	770.72	862.36	104.77	622.45	978.21	-56.591	942.99	964.21	-14.543	867.01	1047.8	-20.567	860.2	971.06	62.262	705.16	87.856	93.576	872.81	784.36	-384.77	688.52	1415.6	-37.028	927.25	41.724	111.44	756.91	112.52	148.57	728.12	1570.5	28.558	862.02	299.74	170.49	848.7	212.04	109.48	838.17	735.71	216.83	875.27	829.3	-330.47	927.29	363.68	115.5	888	287.86	112.49	793.4	117.23	70.67	751.9	254.37	-124.35	638.76	1070.4	179.5	643.36	1083.2	-38.443	737.89	845.77	244.49	704.25	75.793	-38.063	637.09	31.07	-82.634
1024	5.12	904.1	1582.2	-75.65	9	2014	4	903.04	1577.6	22.433	768.73	1385.3	139.06	735.48	785.8	288.57	768.56	1057.1	-333.91	703.54	845.95	309.32	722.63	1247.7	232.09	795.93	1353.3	-220.45	755.21	488.76	-162.33	861.17	974.57	160.7	729.74	950.61	279.57	793.69	1205.7	-296.95	792.87	559.73	-174.68	765.45	335.16	-56.281	914.67	669.87	190.63	827.6	36.498	-42.511	810.59	25.53	-133.05	858.64	652.73	204.39	752.04	250.22	-62.152	811.65	640.7	-202.28	742.18	165.22	-63.701	871.79	30.83	-44.257	900.24	481.97	185.99	855.47	1345.3	-36.167	922.74	1231.2	-16.569	860.72	639.55	-168.13	693.58	70.061	-122.39	873.74	960.51	-196.16	834.5	717.81	-230.33	867.46	967.54	-17.731	882.92	569.01	193.65	838.01	825.6	-387.48	674.27	1083.2	266.62	635.42	1316	58.036	842.66	943.54	-354.95	635.97	979.33	-122.68	906.62	47.821	95.617	876.68	46.017	175.86	753.06	1565.7	-105.5	617.03	976.19	9.9121	783.8	852.5	-137.81	746.98	972.65	-37.058	867.46	967.54	-17.731	775.26	862.06	104.85	626.5	977.76	-56.386	947.31	963.78	-14.771	871.33	1047.4	-20.74	864.64	970.69	62.158	721.53	82.587	94.636	883.23	785.48	-384.34	692.97	1415.2	-37.129	944.8	42.385	113.17	772.59	108.78	149.57	732.55	1570	28.622	872.82	298.84	170.43	861.74	210.58	109.93	843.49	735.59	216.76	883.44	829.8	-329.1	936.15	364.26	115.08	898.94	287.42	112.5	809.13	114.09	71.628	752.49	254.28	-124.26	642.5	1070	179.39	647.49	1082.8	-38.525	741.22	845.19	244.54	704.32	75.743	-37.974	637.11	31.12	-82.488
1025	5.125	908.56	1581.7	-75.497	9	2014	4	907.49	1577.1	22.592	772.96	1384.7	139.11	738.76	785.3	288.71	774.86	1056.7	-334.25	706.79	845.46	309.3	726.63	1247.1	231.99	800.71	1352.8	-220.32	756.7	488.65	-162.18	865.79	974.2	160.55	733.19	950.05	279.62	798.85	1205.4	-297.14	794.86	559.4	-174.56	766.35	334.98	-56.175	920.19	670	190.05	827.64	36.476	-42.511	810.58	25.52	-133.04	864.3	652.62	204.21	752.19	250.27	-61.866	814.43	640.2	-202.1	742.56	165.14	-63.614	871.92	30.79	-44.338	906.45	481.79	185.35	859.83	1344.7	-35.957	926.89	1230.5	-16.022	863.38	638.65	-167.76	693.66	70.142	-122.3	877.76	959.95	-196.22	838.03	717.12	-230.07	871.78	967.07	-17.834	888.85	568.94	193.14	847.83	826.13	-387.27	678.02	1082.8	266.54	639.69	1315.6	57.842	850.67	944.1	-354.87	640	978.86	-122.38	924.15	47.578	97.188	894.04	45.341	177.35	757.54	1565.2	-105.39	621.08	975.69	10.161	787.95	852	-137.68	751.16	972.17	-36.972	871.78	967.07	-17.834	779.81	861.69	104.92	630.54	977.27	-56.11	951.64	963.32	-15.004	875.64	1046.9	-20.895	869.09	970.27	62.057	738.08	77.477	95.813	893.58	786.64	-383.83	697.43	1414.8	-37.198	962.36	43.25	114.85	788.42	105.18	150.66	736.99	1569.4	28.715	883.57	297.98	170.39	874.79	209.21	110.43	848.78	735.43	216.71	891.75	830.42	-327.82	944.89	364.85	114.67	909.84	287.03	112.55	824.95	111.1	72.637	753.13	254.16	-124.16	646.27	1069.6	179.3	651.63	1082.4	-38.562	744.63	844.58	244.63	704.4	75.693	-37.897	637.14	31.182	-82.349
